<svg xmlns="http://www.w3.org/2000/svg" width="30" height="30"><path d="M27 15c0 6.6-5.4 12-12 12S3 21.6 3 15 8.4 3 15 3s12 5.4 12 12" fill="#b2b9bd"/><path d="M18.1 16.4l-1.2-.6c-.2-.1-.2-.1-.4.1-.1.2-.4.6-.6.7-.1.1-.2.2-.4.1s-.7-.2-1.4-.8c-.5-.5-.8-1-1-1.2.1-.2.2-.3.2-.4s.2-.2.2-.3c.1-.1.1-.2.2-.2.1-.1 0-.2 0-.3-.1-.1-.4-1-.6-1.3-.1-.3-.2-.2-.3-.2h-.3c-.1 0-.3.1-.5.2s-.6.5-.6 1.4.7 1.7.7 1.8c.1.1 1.2 1.8 3 2.6.4.2.7.2 1 .3.4.2.8.1 1.1.1.3-.1 1-.4 1.2-.8.2-.4.2-.7.1-.8 0-.3-.1-.3-.4-.4M15 20.7c-1.1 0-2.1-.2-2.9-.8l-.2-.2-2.2.6.6-2.2-.2-.2c-.6-.9-.9-2-.9-3.1C9.2 11.7 11.8 9 15 9c1.6 0 3 .6 4.1 1.7s1.7 2.6 1.7 4.1c0 3.3-2.6 5.9-5.8 5.9M20 10c-1.4-1.3-3.1-2-4.9-2-3.8 0-7 3.1-7 7 0 1.2.3 2.4.9 3.5l-1 3.6 3.6-.9c1 .6 2.2.8 3.3.8 3.8 0 7-3.1 7-7 .1-1.9-.7-3.6-1.9-5" fill="#fff"/></svg>